<?xml version="1.0" standalone="no"?>
<!DOCTYPE svg PUBLIC "-//W3C//DTD SVG 20010904//EN"
 "http://www.w3.org/TR/2001/REC-SVG-20010904/DTD/svg10.dtd">
<svg version="1.0" xmlns="http://www.w3.org/2000/svg"
 width="1024.000000pt" height="1024.000000pt" viewBox="0 0 1024.000000 1024.000000"
 preserveAspectRatio="xMidYMid meet">
<metadata>
Created by potrace 1.16, written by Peter Selinger 2001-2019
</metadata>
<g transform="translate(0.000000,1024.000000) scale(0.100000,-0.100000)"
fill="#000000" stroke="none">
<path d="M0 5120 l0 -5120 5120 0 5120 0 0 5120 0 5120 -5120 0 -5120 0 0
-5120z m3619 4244 c58 -26 198 -85 311 -131 527 -217 599 -246 650 -268 405
-168 601 -249 900 -370 684 -276 695 -281 739 -331 17 -19 41 -54 53 -77 l23
-42 3 -1532 c1 -1030 -1 -1533 -8 -1533 -6 0 -10 27 -10 63 0 44 -3 58 -10 47
-7 -10 -8 -4 -2 20 4 19 7 683 7 1475 0 1389 -1 1441 -19 1475 -40 75 -82 114
-162 152 -44 21 -268 114 -499 207 -231 93 -474 191 -540 219 -66 27 -226 93
-355 147 -129 53 -336 139 -460 190 -588 245 -668 278 -713 293 -45 15 -48 15
-75 -4 -15 -11 -35 -36 -44 -55 -17 -32 -18 -187 -18 -2816 0 -2467 -2 -2783
-15 -2783 -13 0 -15 317 -15 2790 0 3045 -4 2829 56 2885 39 36 80 32 203 -21z
m-505 -41 l-23 -48 -1 -2787 0 -2786 103 -7 c56 -3 118 -5 137 -4 19 1 79 1
133 0 l97 -1 0 -130 0 -130 -1077 6 c-593 3 -1084 5 -1090 5 -10 -1 -13 30
-13 123 0 107 2 125 17 130 9 4 76 6 148 6 71 -1 408 -1 747 -1 l618 1 2 2753
c3 2240 6 2759 16 2790 18 51 76 115 110 120 15 2 43 5 63 6 l36 1 -23 -47z
m3919 -163 c257 -65 469 -284 596 -615 53 -136 73 -252 73 -410 -1 -164 -20
-257 -79 -375 -44 -88 -135 -185 -206 -219 -296 -143 -750 159 -926 617 -69
181 -91 347 -67 508 25 169 76 281 168 375 122 123 271 163 441 119z m-1029
-81 c12 -115 15 -109 -58 -109 l-63 0 -7 38 c-3 20 -6 58 -6 85 l0 47 64 0 63
0 7 -61z m-3928 -390 c53 -50 39 -136 -28 -170 -91 -46 -190 39 -158 135 13
42 30 56 73 66 41 8 84 -3 113 -31z m2689 -146 c44 -19 125 -52 180 -73 152
-58 194 -79 211 -105 21 -32 11 -72 -22 -87 -21 -10 -36 -7 -102 21 -42 18
-129 52 -192 77 -63 24 -137 55 -165 69 -51 25 -65 25 -49 2 5 -7 1 -4 -8 6
-25 27 -23 85 4 114 25 26 25 26 143 -24z m-937 -34 c70 -27 159 -63 197 -79
39 -16 153 -62 255 -101 878 -341 1718 -677 1756 -703 69 -47 143 -153 175
-251 10 -32 14 -269 20 -1140 3 -605 8 -1112 12 -1127 3 -15 0 -34 -6 -42 -16
-22 -180 -78 -188 -65 -3 6 -25 13 -47 16 -28 4 -46 13 -56 28 -23 35 -218
532 -267 682 l-44 132 -195 91 c-210 98 -205 94 -342 254 -51 58 -59 72 -53
95 4 14 13 58 19 96 l12 70 57 7 c96 12 167 62 167 118 0 39 -29 89 -84 146
l-55 57 30 109 c20 70 29 119 24 136 -22 88 -262 202 -424 202 -84 0 -101 -13
-139 -105 -18 -44 -42 -98 -52 -120 -20 -39 -22 -40 -65 -37 -175 14 -216
-144 -76 -296 l31 -33 -23 -30 c-41 -57 -12 -180 49 -208 20 -9 24 -18 24 -59
0 -42 -4 -51 -29 -70 -17 -12 -73 -71 -125 -130 -53 -60 -108 -114 -123 -121
-16 -7 -87 -35 -158 -61 -180 -65 -225 -89 -256 -136 -65 -99 -70 -148 -39
-399 54 -450 97 -725 121 -791 36 -96 116 -165 208 -180 l41 -7 0 -78 0 -79
-140 0 c-129 0 -140 -1 -150 -20 -6 -11 -17 -20 -25 -20 -19 0 -45 -39 -45
-67 0 -22 -4 -23 -67 -24 -88 0 -125 -15 -163 -63 l-30 -39 0 -178 0 -179 -50
0 c-48 0 -49 1 -55 33 -3 17 -5 1065 -3 2327 3 2186 4 2298 21 2348 33 96 115
158 195 146 18 -3 90 -28 160 -55z m-2229 -84 c46 -62 49 -71 24 -80 -10 -3
-26 -23 -36 -45 -18 -39 -18 -40 18 -217 63 -313 141 -764 134 -769 -12 -7
-30 77 -68 306 -63 376 -118 630 -142 655 -11 11 -35 46 -54 78 l-34 57 46 35
c25 19 51 35 58 35 7 0 31 -25 54 -55z m6405 5 c52 -19 82 -104 52 -145 -11
-15 -12 -25 -3 -40 12 -23 77 -181 173 -425 186 -470 218 -542 245 -552 24 -8
49 -44 49 -68 0 -19 -40 -50 -64 -50 -14 0 -32 7 -40 16 -20 19 -21 80 -2 87
11 4 -17 82 -115 329 -238 595 -270 670 -288 662 -9 -3 -23 -8 -32 -11 -14 -4
-17 -39 -23 -266 -3 -144 -11 -373 -17 -509 -6 -136 -9 -257 -6 -270 6 -24 15
-35 101 -128 l51 -55 -58 55 c-32 30 -72 75 -89 99 l-31 44 12 266 c6 146 14
379 18 517 6 251 6 252 -15 258 -35 11 -62 54 -62 98 0 74 70 117 144 88z
m-6790 -602 l45 -31 -24 -46 c-14 -25 -34 -57 -45 -70 l-20 -23 -50 33 c-27
19 -50 38 -50 42 0 13 82 127 91 127 5 0 29 -14 53 -32z m5694 -355 c-2 -5 -9
-19 -15 -33 -10 -24 -25 -221 -43 -597 -5 -95 -12 -177 -15 -183 -4 -7 -14 1
-23 19 -10 16 -62 78 -117 137 -55 59 -105 115 -110 125 -7 13 -14 15 -25 9
-8 -6 -27 -7 -42 -4 -23 5 -36 -5 -99 -70 -39 -42 -78 -84 -85 -93 -13 -17
-13 -17 -14 1 0 10 36 55 80 101 58 58 79 87 74 99 -9 25 22 66 51 66 15 0 35
11 49 28 75 85 282 342 298 370 11 17 24 32 30 32 5 0 8 -3 6 -7z m-4906 -144
c92 -20 168 -61 236 -129 105 -105 152 -190 174 -318 32 -187 -62 -410 -201
-482 -52 -26 -146 -50 -191 -49 -31 1 -30 2 14 10 174 29 266 99 325 251 78
195 37 393 -114 556 -164 176 -388 197 -558 51 -105 -90 -150 -197 -150 -354
0 -81 5 -114 25 -175 14 -41 20 -66 13 -57 -7 10 -16 18 -19 18 -34 -4 -39 1
-16 15 24 14 24 15 2 11 -12 -3 -20 -1 -17 3 3 5 -1 11 -7 14 -7 4 -3 4 10 2
12 -2 20 0 16 5 -8 13 -52 11 -57 -3 -4 -10 -6 -10 -6 -1 -1 7 11 19 27 27
l27 15 -35 -4 -35 -5 35 15 35 15 -35 -5 c-19 -3 -29 -2 -23 1 10 4 9 9 -2 21
-25 25 -19 53 13 54 l27 1 -30 8 -30 8 30 2 30 2 -30 7 -30 7 30 12 30 12 -28
-4 c-17 -2 -26 1 -24 8 2 6 13 12 25 14 12 2 22 8 22 14 0 6 -9 8 -20 5 -13
-3 -20 0 -20 9 0 10 7 13 25 8 21 -5 24 -3 20 16 -2 12 1 30 7 40 9 14 9 22
-3 36 -9 11 -9 15 -1 10 6 -4 12 -3 12 3 0 5 -6 12 -12 14 -8 4 -7 6 4 6 9 1
36 29 61 64 82 114 144 160 262 192 63 17 91 18 157 4z m91 -77 c122 -60 239
-214 268 -350 19 -94 7 -215 -30 -297 -56 -123 -144 -192 -275 -216 -130 -24
-258 21 -353 126 -94 104 -133 208 -133 359 0 161 63 287 181 362 67 42 115
54 201 51 62 -3 89 -10 141 -35z m5120 -78 c7 -7 -31 -84 -46 -95 -11 -8 -87
-132 -87 -141 0 -4 -13 -29 -28 -55 -57 -97 -99 -179 -105 -205 -4 -14 -10
-34 -13 -45 -6 -17 66 119 160 301 22 43 53 92 68 108 16 17 37 50 47 74 14
32 24 42 35 38 9 -3 16 -11 16 -17 0 -6 -85 -153 -188 -326 -104 -174 -216
-363 -249 -421 -33 -58 -94 -164 -136 -237 -43 -72 -77 -133 -77 -135 0 -2
104 -3 231 -2 l231 0 39 62 c21 34 39 63 39 64 0 2 -91 0 -202 -4 -111 -4
-204 -6 -206 -3 -2 2 4 18 14 34 37 59 173 289 246 416 76 131 130 223 247
418 62 104 65 106 105 111 96 13 519 36 538 30 19 -6 181 -165 456 -447 67
-69 122 -128 122 -132 0 -3 -24 -47 -53 -98 -29 -50 -102 -182 -162 -292 -59
-110 -161 -294 -225 -410 -65 -115 -177 -327 -248 -470 -145 -287 -230 -444
-255 -470 -22 -22 -22 -22 14 -40 36 -19 51 -52 36 -80 -6 -11 -10 -23 -9 -28
1 -4 -4 -6 -10 -5 -10 2 -14 -40 -18 -174 -3 -97 -8 -180 -12 -184 -5 -4 -8
74 -8 174 l0 182 -25 6 c-13 3 -23 11 -22 17 1 6 -7 12 -18 14 l-20 3 20 -9
c19 -8 19 -9 -5 -20 -14 -6 -61 -20 -104 -31 -88 -22 -142 -53 -151 -87 -3
-12 -14 -25 -25 -28 -30 -10 -70 -53 -70 -76 0 -11 -4 -18 -8 -15 -4 2 -14
-10 -22 -27 -7 -18 -16 -34 -20 -37 -14 -11 -90 -141 -132 -225 -86 -173 -131
-250 -164 -284 -19 -19 -34 -37 -34 -41 0 -4 -11 -12 -24 -19 -27 -15 -57 -4
-88 32 -15 17 -25 19 -65 13 -27 -4 -57 -8 -68 -10 -12 -1 -19 -8 -19 -18 1
-9 -5 -19 -13 -22 -9 -4 -12 -1 -8 7 4 6 0 4 -8 -5 -17 -22 -27 -23 -27 -3 0
13 -3 13 -20 3 -12 -8 -19 -21 -18 -33 3 -18 11 -20 86 -22 46 -1 87 -4 90 -8
3 -3 -39 -5 -94 -4 l-100 1 3 32 c2 29 2 29 -6 6 -6 -16 -9 80 -10 251 -1 152
-4 291 -8 309 l-6 33 129 -7 c71 -4 163 -9 205 -12 l76 -5 43 48 c23 26 58 73
78 103 20 30 58 85 85 123 44 61 52 67 83 67 19 0 47 6 62 14 65 34 196 199
372 466 27 41 88 129 136 195 117 165 124 176 124 211 0 48 -40 76 -131 88
-24 3 -92 15 -149 26 -58 11 -155 28 -216 37 l-111 16 -68 -31 c-37 -18 -73
-32 -80 -32 -7 0 -24 12 -37 28 -18 22 -33 28 -73 30 -49 3 -196 19 -401 43
l-102 12 36 61 c77 133 188 316 262 431 240 373 337 530 524 842 31 53 37 58
49 47z m-2608 -235 c-5 -16 4 -31 41 -66 76 -73 229 -135 371 -149 50 -5 61
-3 81 15 l22 22 0 -59 c0 -76 -13 -93 -81 -102 -86 -11 -319 49 -311 80 1 7
-3 10 -10 7 -12 -4 -57 22 -85 49 -7 7 -16 14 -20 16 -5 1 -20 18 -35 36 -29
35 -29 34 5 120 20 51 35 72 22 31z m4391 -23 c28 -28 34 -42 34 -76 0 -57
-50 -110 -104 -110 -73 0 -116 42 -116 116 0 54 53 104 110 104 34 0 48 -6 76
-34z m-4442 -335 c15 -15 30 -41 35 -57 10 -37 23 -37 35 1 6 17 11 32 13 34
4 6 153 -51 153 -59 0 -5 10 -6 22 -2 13 3 19 1 15 -5 -5 -7 1 -9 15 -5 16 4
19 2 13 -9 -8 -12 -6 -12 8 0 9 7 17 9 17 4 0 -5 17 -8 38 -6 30 2 33 1 17 -7
-14 -7 0 -8 48 -4 53 5 67 3 67 -7 -1 -38 -43 -208 -61 -246 -25 -51 -113
-133 -143 -133 -57 0 -164 79 -229 170 l-18 25 5 -25 c18 -102 18 -97 3 -70
-8 14 -22 70 -30 124 -15 89 -20 104 -51 135 -58 62 -73 116 -39 153 22 25 35
23 67 -11z m2206 -42 c-6 -11 -19 -23 -28 -26 -53 -16 -71 -26 -65 -36 4 -6 1
-7 -7 -2 -7 5 -49 -11 -106 -41 -80 -41 -91 -50 -81 -63 10 -14 10 -14 -5 -3
-14 11 -22 11 -48 -3 -17 -9 -28 -20 -25 -25 3 -4 0 -10 -7 -12 -8 -3 -8 -12
2 -35 8 -17 19 -29 26 -26 14 5 68 -30 95 -61 11 -14 18 -16 23 -7 5 7 2 10
-5 9 -7 -2 -15 5 -17 15 -2 9 2 17 8 17 6 0 8 -5 4 -12 -6 -10 -4 -10 8 0 33
26 26 -6 -15 -68 -23 -35 -51 -78 -61 -96 -11 -18 -24 -30 -29 -27 -6 3 -7 1
-3 -5 4 -6 -4 -28 -17 -49 -12 -21 -34 -59 -47 -86 l-25 -47 -5 244 c-3 134
-3 277 0 317 l6 74 6 -55 c4 -30 8 -59 9 -65 2 -9 342 155 363 175 5 5 14 6
21 4 7 -3 16 -1 20 5 12 20 16 11 5 -10z m-5721 -102 c52 -34 98 -105 107
-163 17 -118 -58 -231 -172 -254 -126 -26 -245 33 -278 139 -18 59 -29 172
-15 151 9 -12 10 -10 6 8 -3 12 -1 20 3 17 9 -5 26 33 22 48 -1 5 3 5 9 1 9
-5 10 -2 6 9 -6 17 38 61 53 52 4 -3 23 2 41 10 23 10 58 14 105 13 58 -3 78
-8 113 -31z m880 -250 c-21 -106 -22 -118 -7 -134 9 -10 18 -27 22 -38 9 -29
582 -313 598 -297 18 18 66 14 84 -6 15 -18 20 -18 136 5 67 13 123 21 127 18
9 -9 -22 -25 -49 -25 -14 0 -64 -7 -112 -17 -74 -14 -87 -19 -90 -37 -3 -23
-52 -51 -71 -42 -7 3 -19 11 -27 17 -12 9 -70 -11 -269 -90 -140 -56 -260
-101 -268 -101 -7 0 -13 -8 -13 -17 0 -63 59 -642 76 -748 5 -27 3 -37 -4 -30
-13 13 -78 565 -97 835 -2 30 -16 148 -31 262 l-28 207 -30 3 c-58 6 -68 79
-14 105 20 10 27 26 42 95 24 116 37 161 42 155 3 -3 -5 -57 -17 -120z m3291
-171 c0 -7 -11 -29 -24 -49 l-24 -35 30 -6 c17 -3 59 -6 94 -6 40 0 64 -4 64
-11 0 -39 -183 -803 -254 -1059 -53 -191 -43 -110 15 115 46 183 188 809 203
898 l7 37 -85 0 c-112 0 -122 4 -90 38 14 15 32 39 39 53 14 25 11 30 -60 120
-41 51 -75 97 -75 101 0 5 36 -35 80 -87 44 -52 80 -101 80 -109z m-599 59
c30 -44 66 -96 81 -116 l28 -36 -26 -24 c-44 -41 -54 -71 -54 -169 0 -49 -4
-90 -9 -90 -4 0 -14 35 -21 78 -7 42 -23 135 -36 206 -21 111 -32 248 -20 235
2 -2 28 -40 57 -84z m404 36 c15 -29 14 -30 -28 -64 -23 -18 -57 -44 -75 -56
-56 -39 -28 -35 48 6 69 37 71 37 86 19 20 -28 19 -30 -28 -62 -24 -15 -45
-30 -47 -31 -2 -2 -2 -5 1 -8 3 -3 21 2 41 11 43 21 67 13 67 -21 0 -22 -8
-30 -40 -42 -22 -9 -37 -20 -34 -24 3 -5 14 -5 24 1 29 16 58 12 70 -9 15 -29
13 -34 -26 -60 -22 -15 -47 -47 -65 -83 -22 -43 -156 -203 -193 -230 -4 -3
-153 88 -177 109 -15 12 -14 18 7 60 19 37 24 62 24 123 0 72 2 79 33 116 18
21 47 59 64 83 30 41 206 191 224 191 5 0 15 -13 24 -29z m489 -220 c92 -46
112 -60 114 -81 4 -28 40 -133 77 -225 72 -179 114 -298 108 -307 -4 -7 -1 -8
7 -3 10 6 11 1 6 -21 -4 -18 -3 -24 2 -16 7 10 13 3 25 -25 8 -21 27 -64 41
-96 15 -32 22 -56 16 -52 -5 3 -10 1 -10 -5 0 -6 -4 -8 -10 -5 -5 3 -10 11
-10 16 0 6 4 7 10 4 6 -3 7 1 3 10 -4 12 -8 13 -13 5 -5 -8 -10 -2 -14 15 -4
15 -9 25 -12 22 -3 -2 2 -24 10 -48 16 -47 16 -63 -1 -26 -68 149 -205 547
-239 692 l-7 30 -20 -45 c-11 -25 -31 -79 -44 -120 l-23 -75 6 55 c3 30 19 94
34 142 l28 87 -87 46 c-99 53 -171 102 -132 90 14 -4 74 -33 135 -64z m1123
-162 c178 -20 201 -24 192 -38 -5 -9 -29 -43 -54 -76 -24 -33 -63 -91 -87
-130 -63 -103 -119 -176 -131 -168 -6 3 -7 1 -3 -5 7 -12 -77 -144 -111 -174
-19 -18 -93 -52 -99 -46 -4 4 -5 164 -5 457 l1 214 48 -6 c26 -3 138 -16 249
-28z m280 -39 c31 -38 47 -38 119 1 54 28 65 31 124 26 36 -3 101 -13 145 -21
44 -9 143 -27 220 -42 130 -24 183 -40 173 -50 -3 -2 -51 5 -109 15 -179 33
-418 71 -446 71 -54 0 -193 -174 -312 -392 -24 -43 -44 -78 -46 -78 -6 0 31
80 60 133 15 26 24 47 21 47 -3 0 -22 -30 -42 -67 -21 -38 -58 -97 -82 -133
-138 -198 -188 -277 -185 -287 2 -6 -1 -14 -6 -18 -7 -4 -8 1 -4 12 3 10 3 15
-2 11 -21 -19 -222 -314 -277 -407 -34 -57 -64 -99 -66 -92 -5 14 60 142 103
201 44 61 175 253 203 298 l23 37 -26 -30 c-14 -16 -43 -55 -64 -85 -20 -30
-59 -86 -86 -125 -91 -131 -103 -150 -140 -223 -20 -40 -33 -77 -30 -82 10
-16 -11 -11 -26 6 -10 12 -10 19 -1 32 6 10 29 51 50 92 39 76 104 175 187
285 24 33 52 76 61 95 9 19 26 53 37 75 11 22 15 36 9 30 -6 -5 -23 -34 -37
-63 -24 -47 -95 -153 -194 -288 -17 -22 -55 -88 -85 -146 -33 -63 -59 -102
-65 -98 -16 10 79 185 183 338 102 147 130 192 123 192 -2 0 -17 -19 -33 -42
-16 -24 -68 -99 -115 -168 -48 -69 -108 -166 -134 -217 -27 -51 -52 -90 -57
-87 -11 7 -10 42 2 49 11 7 43 65 36 65 -2 0 -14 -15 -25 -32 -42 -66 -38 -63
-55 -45 -16 15 3 45 250 399 147 211 298 426 334 478 37 52 103 149 145 215
68 105 99 145 113 145 2 0 15 -13 29 -30z m-1927 -320 c-51 -212 -66 -240 -57
-104 6 82 4 95 -13 117 -20 25 -20 25 5 86 14 33 25 66 25 73 0 6 12 30 28 52
l27 39 3 -88 c2 -64 -3 -113 -18 -175z m-246 102 c80 -48 170 -121 150 -122
-6 0 -33 17 -60 38 -69 54 -246 155 -254 145 -4 -4 -50 -71 -102 -148 -209
-310 -334 -485 -344 -485 -3 0 -2 6 2 13 22 35 399 585 414 602 9 11 20 28 23
38 6 17 10 16 49 -8 24 -14 78 -47 122 -73z m3969 -70 c9 -10 20 -33 23 -50 5
-25 12 -32 29 -32 13 0 25 -7 29 -15 5 -13 -20 -15 -184 -15 -114 0 -190 4
-190 10 0 5 16 12 35 16 30 5 35 10 35 33 0 15 7 37 16 49 14 20 24 22 103 22
72 0 91 -3 104 -18z m-1319 -69 c3 -25 6 -83 6 -128 0 -79 -2 -85 -37 -136
-92 -135 -244 -314 -286 -335 -35 -19 -66 1 -89 57 -7 19 57 113 71 105 4 -3
8 0 9 7 1 7 4 24 8 39 5 20 -3 39 -34 85 -52 76 -58 99 -36 124 9 10 24 19 33
19 9 0 45 -35 79 -79 34 -43 69 -84 77 -91 26 -22 18 37 -20 138 -40 107 -42
125 -15 152 42 42 56 23 116 -147 37 -107 45 -97 32 42 -10 114 -3 159 29 184
34 27 49 18 57 -36z m-5829 1 c113 -38 259 -162 318 -271 50 -93 73 -217 68
-373 -1 -26 -5 -40 -9 -33 -5 8 -14 -8 -25 -43 -10 -31 -14 -60 -11 -66 5 -7
2 -8 -6 -3 -10 6 -12 4 -7 -8 3 -9 3 -16 -2 -14 -4 1 -26 -21 -48 -49 -83
-104 -187 -149 -343 -148 -78 1 -107 5 -165 28 -166 64 -273 175 -329 338
-101 300 54 608 331 658 64 12 167 4 228 -16z m1061 -29 c67 -33 114 -111 114
-188 0 -38 -40 -109 -58 -102 -7 2 -10 0 -7 -5 8 -13 -68 -50 -102 -50 -37 0
-113 27 -137 48 -28 25 -56 98 -56 145 1 61 28 107 85 145 42 28 57 32 90 28
22 -3 54 -12 71 -21z m6164 -131 c0 -97 -1 -102 -22 -107 -13 -2 -93 -4 -178
-2 l-155 2 -6 44 c-4 24 -5 62 -3 84 1 22 3 48 3 57 1 18 63 23 284 23 l77 0
0 -101z m-3226 -454 c37 -76 109 -165 161 -202 55 -38 131 -51 224 -38 64 9
76 8 83 -5 14 -24 142 -95 172 -95 24 0 76 -38 76 -56 0 -14 -20 -1 -21 14 0
14 -2 14 -9 -3 -5 -11 -8 -186 -8 -390 0 -364 3 -384 27 -230 7 38 9 14 10
-101 1 -171 9 -154 -88 -180 -69 -18 -113 -44 -174 -103 -59 -56 -94 -121
-113 -210 -25 -118 -11 -235 42 -348 37 -78 147 -188 242 -240 39 -22 69 -43
65 -46 -3 -4 -68 -7 -142 -7 -108 0 -141 -3 -159 -16 -103 -72 -62 -312 77
-453 51 -53 171 -131 200 -131 7 0 59 27 117 61 l104 61 -52 26 c-113 56 -198
176 -198 279 0 80 23 128 71 147 49 20 59 20 109 0 44 -18 74 -58 85 -114 11
-57 26 -88 51 -105 l24 -15 0 192 0 193 -93 50 c-198 108 -288 250 -275 436
12 169 155 323 319 345 l49 7 0 126 c0 69 4 132 9 139 5 8 23 12 47 10 l39 -3
3 -135 3 -135 63 -17 c198 -52 325 -169 343 -315 8 -72 -11 -121 -53 -139 -42
-18 -105 -18 -148 0 -32 13 -66 65 -66 100 0 28 -60 85 -102 97 -22 5 -41 9
-42 7 0 -2 0 -74 2 -160 l3 -157 135 -66 c204 -101 288 -189 321 -336 l17 -76
66 40 c94 58 382 200 468 231 40 14 88 26 107 26 26 0 35 5 40 21 4 12 31 72
60 134 111 234 134 299 114 320 -3 2 -73 -28 -155 -69 -82 -40 -195 -95 -252
-121 -73 -34 -101 -53 -97 -62 8 -22 -12 -50 -44 -61 -25 -9 -32 -7 -49 11
-30 34 -34 45 -22 67 17 31 45 42 74 28 28 -12 48 -4 374 154 118 57 147 76
164 103 31 54 82 59 108 10 18 -34 -3 -74 -42 -82 -15 -3 -28 -10 -28 -15 0
-11 -128 -302 -166 -378 -13 -26 -24 -51 -24 -54 0 -3 19 -6 43 -6 23 0 60 -5
81 -11 l39 -11 -29 -25 -29 -25 35 24 c93 64 157 91 270 114 128 26 325 43
319 27 -7 -16 -82 -79 -139 -115 -85 -54 -239 -130 -415 -203 -285 -119 -319
-133 -390 -155 -69 -22 -248 -95 -413 -168 -70 -31 -79 -38 -61 -44 12 -5 24
-6 27 -3 3 3 -1 5 -9 5 -17 1 72 39 201 86 52 19 132 51 178 71 45 20 85 33
88 31 2 -3 -62 -33 -143 -68 -165 -70 -223 -96 -303 -141 -52 -29 -34 -31 21
-3 15 7 80 27 145 44 162 42 224 63 224 76 0 6 27 15 59 21 60 12 287 90 342
119 16 8 60 24 97 36 73 22 444 184 584 254 l88 44 -1 -162 0 -163 -53 -17
c-29 -10 -74 -18 -100 -18 -51 0 -162 -25 -286 -65 -41 -13 -84 -26 -95 -29
-11 -3 -6 -4 10 -2 17 2 86 20 155 40 82 25 152 39 205 42 95 5 77 -8 -35 -25
-41 -7 -120 -23 -175 -37 -182 -46 -365 -82 -365 -72 0 7 -5 6 -13 -1 -8 -6
-17 -8 -20 -4 -4 3 -7 1 -7 -6 0 -8 -7 -10 -20 -6 -11 3 -48 -3 -82 -14 -97
-30 -416 -103 -430 -98 -18 7 -12 8 209 58 106 24 186 45 179 47 -8 2 -73 -11
-146 -28 -73 -17 -134 -29 -137 -27 -4 5 20 13 117 40 30 8 73 20 95 26 22 6
51 20 65 32 l25 20 -40 -19 c-41 -20 -173 -52 -235 -58 -32 -2 -144 -38 -450
-143 -100 -34 -192 -71 -420 -167 -97 -41 -38 -26 85 22 135 52 600 204 626
204 5 0 9 -4 9 -9 0 -5 -20 -12 -45 -15 -25 -4 -45 -11 -45 -17 0 -5 -9 -9
-19 -9 -64 0 -532 -168 -813 -291 -107 -47 -358 -191 -480 -275 -62 -43 -171
-125 -243 -182 -71 -58 -136 -110 -143 -115 -7 -5 -15 -7 -18 -4 -8 7 223 203
360 305 147 110 256 195 256 199 0 15 -327 -224 -460 -336 -99 -84 -220 -204
-214 -213 3 -4 -2 -8 -10 -8 -8 0 -80 -64 -159 -143 l-144 -142 -45 25 c-44
25 -44 26 -32 55 40 97 182 291 318 432 128 134 525 445 596 468 26 8 26 25 0
25 -28 0 -544 110 -552 118 -3 4 -12 194 -18 422 -6 228 -14 481 -17 561 l-5
146 51 6 c28 3 88 3 134 0 117 -8 117 -9 117 168 0 176 -2 179 -120 179 -44 0
-80 2 -80 5 0 3 20 34 44 69 115 169 115 250 1 736 -45 194 -62 290 -70 418
-3 42 -8 98 -11 125 -2 26 -1 47 3 47 4 0 21 -27 37 -60z m-3440 -103 c13 -13
25 -29 27 -36 3 -7 56 -19 139 -31 174 -26 170 -26 171 8 1 20 3 22 6 7 2 -12
12 -26 22 -32 10 -6 101 -17 202 -24 101 -6 189 -16 194 -22 7 -6 -17 -7 -70
-3 -235 19 -307 20 -320 2 -10 -13 -18 -14 -37 -7 -14 5 -28 17 -31 25 -4 11
-19 16 -44 16 -21 1 -83 9 -138 19 l-99 18 -19 -24 c-14 -17 -25 -22 -41 -17
-57 17 -76 79 -34 108 30 22 45 20 72 -7z m6006 -87 c286 -64 477 -353 426
-646 -35 -199 -164 -349 -349 -406 -98 -29 -244 -23 -340 17 -50 20 -72 24
-80 16 -6 -6 -15 -11 -21 -11 -5 0 -1 8 10 18 18 18 21 18 70 -4 110 -49 245
-57 351 -21 206 70 327 231 340 452 10 170 -44 310 -166 428 -126 122 -274
168 -433 135 -113 -24 -178 -59 -258 -138 -80 -80 -112 -141 -137 -263 l-18
-87 -37 0 c-29 0 -36 3 -32 15 4 8 20 16 38 17 l31 1 -33 4 c-40 5 -38 25 4
34 l29 7 -29 1 c-34 1 -25 17 14 24 25 4 25 4 -2 6 -36 1 -27 30 11 32 23 2
24 2 4 6 -13 2 -23 9 -23 15 0 6 11 8 25 6 31 -6 32 0 3 12 -21 8 -21 9 -3 10
17 0 17 2 5 10 -11 7 -11 10 -2 10 7 0 21 19 31 43 20 47 104 129 189 185 100
67 265 98 382 72z m-5881 -193 c203 -326 211 -337 247 -337 40 0 65 -28 63
-71 -1 -25 12 -57 51 -122 28 -49 50 -91 46 -94 -5 -5 -29 30 -89 132 -23 39
-31 46 -55 43 -36 -4 -66 32 -59 71 5 24 -2 35 -46 78 -60 57 -186 160 -267
218 -164 116 -258 189 -254 197 3 5 33 -13 67 -40 34 -27 105 -80 157 -117 52
-38 139 -103 193 -147 60 -48 90 -67 79 -50 -20 29 -203 321 -241 385 -13 20
-19 37 -14 37 4 0 59 -82 122 -183z m5910 134 c205 -64 352 -268 352 -489 0
-239 -140 -419 -370 -478 -163 -41 -362 37 -474 186 -84 111 -121 259 -99 393
48 285 329 470 591 388z m-3377 -91 c142 -37 499 -157 514 -173 7 -7 25 -45
42 -84 28 -68 30 -86 6 -64 -5 5 -56 27 -114 49 -261 100 -352 140 -345 153 5
8 167 -46 222 -74 15 -8 53 -22 83 -32 30 -10 72 -26 93 -37 22 -11 41 -17 43
-15 8 8 -60 46 -117 66 -30 11 -107 40 -173 65 -65 25 -122 43 -127 41 -4 -3
-11 0 -14 6 -4 6 -19 8 -34 5 -17 -4 -21 -3 -13 2 11 7 7 14 -17 31 -17 12
-31 19 -31 16 0 -4 -7 0 -15 9 -9 8 -42 25 -75 37 -57 21 -72 29 -51 29 5 0
61 -13 123 -30z m1528 -460 c0 -300 -3 -460 -10 -460 -6 0 -11 154 -12 438 0
240 -1 445 0 454 1 10 -7 18 -21 21 -16 3 -13 5 11 6 l32 1 0 -460z m-1524
359 c14 -19 32 -58 40 -88 16 -53 14 -80 -11 -216 -4 -16 5 3 20 44 14 40 23
83 20 95 -2 11 -2 15 1 8 3 -6 10 -9 16 -6 18 11 1 -83 -36 -208 -19 -62 -53
-178 -75 -258 -23 -80 -62 -208 -86 -285 -24 -77 -52 -168 -62 -202 -9 -35
-21 -63 -25 -63 -9 0 -4 30 14 89 6 18 28 99 50 180 21 80 45 166 52 191 48
162 96 350 96 375 -1 17 -13 -16 -30 -75 -16 -58 -41 -145 -55 -195 -15 -49
-40 -135 -56 -190 -16 -55 -38 -128 -49 -162 -11 -34 -20 -68 -20 -76 0 -8
-10 -22 -22 -33 -12 -10 -19 -14 -15 -8 3 6 18 55 32 110 14 54 35 126 45 159
11 33 35 116 54 185 19 69 48 170 66 225 27 86 30 109 25 165 -8 83 -21 131
-51 194 -31 65 -23 71 16 10 35 -55 52 -111 49 -158 -1 -17 -1 -44 0 -61 3
-26 4 -24 17 20 7 28 14 62 14 77 0 39 -36 129 -71 178 -25 34 -26 39 -9 27
11 -8 32 -30 46 -48z m-596 -74 l0 -35 -130 0 c-121 0 -130 1 -130 19 0 49 5
51 136 51 l124 0 0 -35z m-7 -62 c242 -9 148 -23 -153 -23 l-290 0 -2 -382 -3
-383 -5 385 -5 385 -25 -3 c-14 -2 -31 -9 -39 -15 -10 -9 -13 -7 -10 8 3 15
15 22 49 26 54 8 293 9 483 2z m3244 -127 c-1 -19 -6 -32 -10 -29 -9 6 -61
-47 -136 -137 -49 -59 -427 -440 -437 -440 -2 0 -3 11 -2 24 1 14 5 23 8 21 9
-5 61 41 55 49 -3 3 -2 4 2 1 10 -8 102 88 96 99 -4 6 -2 8 2 3 11 -10 66 43
58 56 -3 6 -1 7 4 4 18 -11 299 293 285 308 -4 5 -2 5 5 2 11 -7 63 46 63 64
0 5 2 9 5 9 3 0 4 -15 2 -34z m1507 -318 c-6 -10 -4 -10 8 0 13 10 17 10 20 0
3 -7 15 -13 29 -13 18 0 23 -5 21 -19 -2 -10 1 -15 6 -12 5 3 14 0 20 -7 13
-15 10 -67 -3 -65 -13 2 -65 -20 -65 -27 0 -8 54 0 72 10 7 4 4 -2 -8 -14 -23
-24 -74 -38 -74 -20 0 8 -12 10 -35 6 -48 -8 -36 7 28 37 29 13 61 34 72 46
19 21 17 21 -30 -5 -27 -15 -54 -31 -60 -35 -19 -14 -64 -20 -71 -9 -8 14 13
35 46 44 23 7 24 7 10 -11 -13 -16 -11 -16 15 2 17 12 37 23 46 27 17 6 33 47
18 47 -5 0 -9 -5 -9 -10 0 -12 -49 -34 -67 -31 -7 1 -24 -6 -38 -15 -25 -16
-25 -16 -25 12 0 21 9 35 33 51 37 25 52 29 41 11z m-7212 -310 c-9 -4 5 -6
33 -6 43 0 46 1 20 8 -30 8 -30 8 8 9 23 1 36 -3 32 -9 -3 -5 3 -10 14 -10 12
0 21 -6 22 -12 0 -10 2 -10 6 0 2 6 18 12 34 12 16 0 29 5 29 10 0 7 282 10
825 10 727 0 825 -2 825 -15 0 -8 -4 -15 -8 -15 -5 0 -5 -24 -2 -52 4 -29 4
-74 0 -100 -4 -27 -5 -48 -2 -48 2 0 -1 -6 -7 -14 -10 -12 -170 -13 -1069 -9
-756 4 -1059 9 -1064 17 -9 13 -11 220 -2 228 3 3 77 5 164 4 88 0 152 -4 142
-8z m3999 -45 c5 -5 8 -70 7 -144 l-3 -134 -289 -3 c-169 -1 -294 2 -299 7 -5
5 -10 68 -10 140 l-1 131 -31 2 c-16 1 42 5 130 8 211 8 485 4 496 -7z m-1961
-242 c24 -7 23 -8 -12 -14 -33 -7 -36 -10 -32 -35 2 -15 1 -62 -4 -104 l-8
-77 25 -4 c15 -2 -478 -5 -1094 -6 -860 -1 -1124 2 -1133 11 -8 8 -12 50 -12
125 l0 113 1123 -1 c617 -1 1133 -4 1147 -8z m1560 -157 c0 -74 -2 -85 -16
-80 -9 3 -65 6 -125 6 -72 0 -108 4 -104 10 4 6 10 8 15 5 11 -7 20 31 20 87
l0 47 -52 4 c-29 2 18 4 105 5 l157 2 0 -86z m-132 -542 c1 -304 -1 -442 -8
-442 -10 0 -130 23 -187 35 l-23 5 0 426 0 425 108 -3 107 -3 3 -443z m92 438
c11 -7 16 -57 22 -257 4 -136 12 -338 17 -448 5 -110 8 -201 7 -203 -2 -1 -26
2 -54 8 -38 9 -51 16 -56 33 -8 31 -8 862 1 870 9 10 46 8 63 -3z m-1655 -19
c17 -7 16 -9 -13 -15 -23 -6 -32 -13 -31 -24 1 -10 -2 -53 -6 -97 -5 -44 -9
-91 -9 -104 l0 -24 -360 7 c-199 3 -629 7 -956 7 -327 1 -633 4 -680 8 l-85 6
-3 109 c-2 71 1 113 9 122 10 12 175 14 1063 13 578 0 1060 -4 1071 -8z m1834
-546 c23 -772 23 -715 1 -715 -10 0 -22 5 -25 11 -4 6 -14 8 -23 4 -14 -5 -14
-3 1 13 15 16 17 42 16 188 0 93 -4 178 -9 189 -6 14 -9 16 -10 5 -1 -8 -6 -4
-10 10 -10 31 -10 164 0 205 3 17 5 -18 2 -77 -3 -61 -1 -108 4 -108 5 0 9 66
9 148 1 81 -2 134 -6 117 -6 -25 -7 -23 -8 18 0 27 2 46 7 44 6 -5 6 294 -1
370 -2 18 1 29 7 26 5 -4 7 0 4 8 -3 8 0 25 5 39 15 35 23 -76 36 -495z
m-1357 454 c102 -34 247 -113 248 -135 0 -6 -8 -18 -17 -27 -19 -16 -79 -20
-330 -18 l-131 1 56 100 c64 114 67 116 174 79z m308 -403 l0 -203 -32 6 c-38
8 -37 -2 -12 211 19 160 24 190 35 190 5 0 9 -92 9 -204z m-54 137 c-4 -32
-16 -134 -26 -227 -12 -107 -24 -173 -32 -178 -10 -8 -10 -11 0 -15 7 -3 12
-25 12 -61 0 -33 -4 -52 -8 -44 -5 7 -6 -15 -4 -48 2 -32 1 -71 -2 -85 l-6
-25 -1569 0 c-1565 0 -1569 1 -1595 21 -16 13 -32 41 -42 76 -28 98 -4 202 61
263 l27 25 901 3 c998 4 1890 -5 1881 -19 -3 -5 -601 -9 -1389 -9 l-1383 0
-33 -27 c-43 -37 -59 -80 -59 -163 0 -118 44 -177 113 -151 18 7 276 11 743
12 668 1 715 2 700 17 -15 16 -68 17 -614 14 -371 -2 -647 -7 -730 -15 l-133
-12 -21 35 c-25 42 -35 125 -19 172 6 19 24 47 40 62 l28 26 724 -1 c398 -1
735 0 749 1 14 1 302 2 640 3 l615 2 -3 -40 c-3 -32 1 -45 18 -60 20 -18 38
-20 161 -21 124 -1 138 0 127 14 -11 13 -10 14 11 7 16 -5 21 -4 17 4 -4 6 -2
11 3 11 30 0 -4 141 -37 156 -9 4 -178 8 -375 9 -337 2 -360 4 -385 22 -34 24
-72 98 -72 138 0 45 40 116 79 142 34 23 34 23 464 23 l430 0 -7 -57z m1836
-43 l-17 -40 -128 0 c-119 0 -127 1 -118 18 26 49 53 58 198 60 l82 2 -17 -40z
m2532 -187 c-1 -21 -2 -86 -3 -144 -1 -103 -2 -107 -23 -107 -31 -1 -202 -27
-308 -47 -47 -9 -134 -25 -194 -36 -60 -10 -126 -24 -147 -29 -70 -19 -129
-28 -129 -19 0 5 7 9 15 9 8 0 15 3 15 8 0 4 10 8 23 9 12 1 33 4 47 7 14 2
39 5 55 6 28 1 29 2 7 10 -23 10 -116 -4 -137 -20 -13 -10 -76 -7 -94 4 -10 7
-12 6 -6 -4 6 -10 4 -12 -10 -7 -9 4 -23 3 -29 -2 -15 -11 -76 -20 -70 -9 3 4
14 8 24 8 10 0 22 5 25 10 4 7 -3 9 -22 5 -62 -13 -69 -14 -82 -5 -15 8 -6 12
112 41 84 21 59 26 -31 7 -127 -27 -150 -31 -132 -20 19 11 226 68 303 83 32
6 56 13 54 15 -3 3 -60 -6 -128 -20 -124 -26 -180 -33 -124 -15 17 6 145 39
285 75 226 58 405 112 480 146 54 25 215 84 221 82 3 -2 5 -20 3 -41z m-3
-305 c2 -24 3 -82 1 -130 l-3 -87 -32 -5 c-18 -3 -115 -10 -217 -16 -102 -5
-252 -15 -335 -20 -147 -10 -415 -25 -605 -34 -77 -4 -87 -3 -50 5 25 5 81 13
125 17 l80 7 -60 5 c-33 3 -64 2 -70 -1 -18 -11 -115 -17 -115 -6 0 5 -12 6
-27 2 -30 -7 -98 -17 -125 -19 -10 0 -18 -4 -18 -8 0 -11 122 2 137 14 11 9
30 -8 20 -18 -9 -9 -208 -25 -228 -19 -11 4 -19 2 -19 -4 0 -6 -11 -11 -24
-11 -23 0 -83 -10 -351 -61 -113 -22 -328 -73 -343 -83 -5 -3 -53 -17 -107
-31 -54 -14 -123 -36 -154 -49 -31 -13 -83 -34 -116 -47 -133 -50 -361 -172
-495 -265 -79 -54 -219 -175 -220 -189 0 -5 19 9 43 32 129 124 321 214 667
311 348 99 716 151 1160 167 85 3 193 8 240 11 47 3 82 3 79 0 -3 -3 -66 -11
-140 -16 -311 -23 -416 -32 -639 -56 -258 -27 -327 -38 -535 -90 -259 -65
-382 -105 -540 -176 -98 -45 -299 -167 -290 -176 2 -2 41 20 87 50 46 30 124
72 173 93 50 20 107 46 127 56 49 25 138 60 138 54 0 -2 -27 -16 -60 -31 -33
-15 -59 -28 -57 -30 2 -2 39 10 83 27 130 51 223 78 329 95 55 8 127 20 160
25 245 40 764 21 1410 -51 50 -5 151 -15 225 -21 177 -14 201 -19 211 -47 l8
-22 -1027 0 c-864 0 -1040 -2 -1111 -15 -47 -8 -90 -20 -95 -26 -8 -9 -6 -10
9 -5 51 19 149 26 380 30 234 4 238 4 75 -4 -96 -4 -240 -15 -318 -24 -79 -9
-148 -14 -152 -11 -17 10 -296 -56 -359 -85 -75 -35 -82 -37 -53 -10 12 11 27
20 33 20 7 0 9 3 6 6 -9 9 140 58 238 79 44 9 114 27 155 40 139 43 272 54
730 65 l315 8 -375 -3 c-384 -4 -517 -14 -640 -50 -30 -9 -108 -27 -172 -41
-124 -25 -240 -65 -273 -94 -11 -10 -54 -35 -95 -55 -83 -42 -174 -106 -209
-147 -33 -40 -23 -34 37 21 57 53 187 126 204 114 7 -3 8 -1 4 5 -4 7 3 11 21
10 15 0 66 13 113 30 117 42 213 60 440 83 309 31 552 38 1389 39 l785 1 12
-35 12 -34 -1081 -5 c-1093 -4 -1138 -6 -1417 -42 -51 -7 -192 -46 -187 -52 2
-2 35 4 73 13 38 9 84 18 103 20 19 3 37 7 42 9 4 3 103 12 219 20 165 12 438
15 1248 16 l1037 1 40 -48 c22 -27 66 -75 98 -107 31 -33 57 -62 57 -66 0 -3
-723 -8 -1607 -9 -1706 -4 -1649 -2 -1667 -48 -6 -15 -11 -11 -31 19 -14 20
-25 41 -25 48 0 18 198 210 285 275 78 59 181 128 316 211 355 220 889 371
1864 528 23 4 21 2 -10 -9 -47 -16 -37 -19 20 -7 49 11 81 16 213 32 56 7 102
15 102 18 0 3 15 6 33 6 49 1 106 12 120 23 6 5 23 9 37 8 14 -1 30 1 35 5 6
4 53 12 105 18 52 6 154 27 225 45 141 37 153 48 15 15 -47 -11 -166 -33 -265
-50 -99 -16 -216 -36 -260 -44 -190 -35 -351 -60 -330 -50 9 4 105 24 345 72
41 9 199 37 350 63 151 26 278 48 281 49 4 0 9 -18 10 -41z m-4881 -322 l0
-143 -722 -6 c-398 -3 -950 -2 -1228 1 l-504 7 -9 40 c-8 36 -2 219 7 234 2 3
556 7 1230 8 l1226 2 0 -143z m4818 15 c7 -4 -87 -10 -212 -14 -143 -3 -232
-10 -243 -17 -17 -11 -16 -11 2 -5 11 3 126 8 257 11 l236 5 7 -23 c18 -64 19
-61 -9 -56 -15 3 -23 1 -19 -5 4 -7 -9 -8 -38 -3 -31 4 -39 3 -29 -4 8 -5 30
-10 48 -10 20 0 32 -5 32 -14 0 -7 21 -20 48 -29 45 -15 35 -16 -248 -16 -162
-1 -421 -4 -575 -7 -208 -4 -275 -2 -262 6 9 6 17 18 17 25 0 8 5 15 10 15 6
0 10 7 10 16 0 8 3 13 8 11 4 -3 13 1 20 9 7 8 9 14 5 14 -16 1 32 23 76 36
41 11 43 12 16 14 -26 2 -24 4 20 17 74 22 793 43 823 24z m-4576 -113 c101
-50 218 -111 261 -136 68 -39 77 -47 77 -73 0 -26 4 -29 30 -29 29 0 30 -2 30
-44 0 -24 3 -57 6 -73 4 -20 1 -35 -9 -44 -7 -7 -12 -21 -9 -31 6 -24 -13 -23
-57 4 l-36 22 20 -24 20 -24 -32 22 c-28 20 -89 46 -293 124 -30 12 -95 38
-145 59 -49 20 -166 61 -260 90 -93 30 -171 57 -173 61 -2 5 -13 8 -25 9 -13
0 -16 3 -9 6 8 3 24 1 35 -5 12 -6 49 -14 82 -18 48 -6 55 -9 35 -15 -15 -4
-18 -7 -8 -8 9 -1 25 -4 35 -7 15 -5 16 -4 3 6 -12 10 -11 11 9 6 13 -2 20 -1
15 3 -16 15 -76 31 -118 32 l-41 2 35 7 c19 3 89 4 155 2 150 -6 155 -3 155
99 0 54 3 69 15 69 8 0 97 -41 197 -92z m-652 -184 c421 -73 751 -164 927
-253 69 -34 77 -37 68 -18 -4 6 3 1 14 -12 12 -13 21 -27 21 -32 0 -12 -17
-12 -24 0 -12 19 -168 85 -321 136 -164 54 -443 121 -735 174 -226 41 -222 40
-155 35 33 -2 125 -16 205 -30z m145 -100 c61 -9 114 -18 119 -22 5 -3 6 0 2
6 -10 16 3 15 98 -7 44 -10 128 -29 186 -42 75 -17 98 -25 80 -29 -20 -5 -14
-8 30 -17 30 -6 72 -14 92 -18 55 -9 230 -83 253 -107 13 -13 15 -19 5 -15 -8
3 -67 27 -130 53 -88 35 -131 47 -183 50 -37 2 -72 6 -77 9 -17 10 -313 45
-470 55 -85 5 -276 9 -425 8 l-270 -1 340 -8 c362 -8 500 -17 715 -51 74 -12
158 -23 185 -24 81 -4 292 -89 303 -121 5 -16 -78 -8 -158 14 -80 22 -232 50
-427 78 -129 19 -207 25 -315 23 -79 -1 -111 -3 -73 -5 310 -13 538 -43 779
-104 66 -16 132 -31 148 -33 16 -1 28 -6 28 -9 0 -4 0 -12 0 -18 0 -5 -4 -8
-9 -5 -11 7 -175 41 -269 57 -268 43 -234 42 -1374 48 l-1098 6 18 32 17 32
1050 4 1050 4 140 -23 c77 -13 153 -26 170 -29 17 -3 25 -2 20 3 -6 5 -41 14
-80 21 -38 6 -108 18 -155 27 -74 14 -213 16 -1112 14 -1071 -1 -1045 -2
-1020 37 5 8 50 17 113 23 57 6 262 26 454 45 667 66 993 76 1250 39z m1511
-13 c99 -17 192 -31 207 -33 29 -3 29 -3 10 -25 -55 -67 -114 -154 -158 -236
-45 -82 -54 -92 -80 -95 -48 -4 -109 -23 -128 -40 -9 -8 -20 -12 -24 -8 -4 3
-9 97 -12 209 -4 140 -7 185 -12 147 -4 -30 -12 -84 -17 -119 -7 -40 -8 -90
-3 -132 12 -92 0 -147 -38 -181 -17 -15 -39 -28 -49 -28 -10 1 -4 6 14 14 42
19 57 60 52 143 -4 70 -33 148 -55 148 -6 0 -15 3 -19 8 -4 4 -19 7 -33 8
l-26 0 25 10 c20 8 27 6 38 -8 13 -16 13 -16 7 7 -8 25 -7 25 13 7 15 -14 21
-15 25 -5 3 7 6 1 6 -14 2 -47 17 -39 20 10 1 25 7 52 12 58 5 7 7 24 3 40 -5
19 -4 25 5 20 11 -7 16 42 11 102 -2 28 -9 28 206 -7z m-1183 -252 c103 -9
288 -38 420 -66 74 -16 78 -18 75 -42 -2 -17 -8 -25 -18 -23 -239 55 -415 72
-880 83 -234 6 -542 8 -685 5 -143 -3 -462 -7 -710 -8 -247 -1 54 -5 670 -8
1014 -5 1132 -7 1245 -24 201 -29 197 -32 -40 -29 -124 2 -313 4 -420 6 -107
1 -179 -1 -160 -4 19 -4 -55 -6 -165 -6 -140 1 -172 2 -105 6 52 3 -125 6
-395 6 -269 0 -458 -3 -420 -6 39 -4 160 -7 270 -7 110 -1 390 -6 623 -12 232
-6 426 -9 431 -5 16 9 364 7 391 -3 15 -6 -257 -8 -740 -7 -684 1 -722 0 -360
-7 223 -4 563 -12 755 -17 261 -6 152 -7 -430 -3 -429 2 -777 1 -773 -3 4 -4
213 -7 465 -7 252 0 514 -3 583 -7 77 -5 -188 -9 -685 -11 -445 -1 -821 -4
-835 -5 -14 -1 -148 -6 -297 -10 -303 -9 -299 -10 -239 54 107 114 126 137
132 153 5 18 49 18 1102 17 603 -1 1141 -5 1195 -10z m1244 -171 c23 -13 60
-47 83 -75 l42 -53 41 24 c25 14 67 26 102 30 33 3 799 6 1703 7 1491 1 1645
-1 1668 -15 13 -9 24 -23 24 -32 0 -14 -2 -14 -16 0 -8 9 -25 18 -37 21 -12 3
-781 4 -1708 3 l-1686 -3 -36 -27 c-19 -16 -44 -28 -54 -28 -10 0 -41 23 -68
51 -104 106 -197 105 -277 -5 -23 -31 -29 -35 -23 -16 6 22 52 110 58 110 1 0
20 7 42 15 57 20 94 18 142 -7z m-882 -37 c61 -3 -286 -6 -770 -6 -750 -1
-799 0 -330 5 812 8 978 8 1100 1z m-52 -37 c86 -4 157 -9 157 -13 0 -3 -681
-5 -1514 -3 -1339 2 -1515 0 -1526 -13 -7 -8 -16 -15 -21 -15 -14 0 -11 28 4
37 6 4 118 11 247 14 294 7 2440 1 2653 -7z"/>
<path d="M6833 9115 c-257 -58 -398 -333 -353 -691 30 -241 141 -466 320 -644
124 -124 245 -189 392 -211 151 -22 274 37 367 177 113 171 135 475 51 724
-62 184 -137 314 -252 436 -163 172 -354 248 -525 209z m217 -42 c254 -70 500
-391 566 -740 25 -134 16 -332 -20 -438 -48 -139 -124 -232 -233 -282 -49 -23
-65 -25 -132 -20 -142 10 -281 78 -404 200 -208 205 -327 480 -327 754 0 174
49 317 142 418 110 119 241 154 408 108z"/>
<path d="M6691 8814 c-68 -95 -85 -151 -85 -284 0 -92 4 -130 23 -190 68 -220
208 -426 343 -505 116 -69 273 -94 358 -59 21 9 25 12 10 9 -88 -19 -146 -16
-225 9 -95 31 -136 55 -205 120 -148 141 -234 292 -276 490 -28 133 3 316 71
415 48 69 36 65 -14 -5z"/>
<path d="M6985 8752 c5 -26 2 -30 -34 -44 -54 -22 -75 -64 -68 -138 8 -95 43
-142 215 -290 47 -41 63 -84 39 -107 -21 -22 -62 -6 -135 52 -32 25 -61 45
-64 45 -2 0 -11 -25 -18 -56 l-14 -55 30 -24 c16 -13 59 -40 95 -60 70 -37 79
-49 79 -116 0 -33 3 -37 39 -47 49 -15 61 -15 57 1 -3 6 -7 33 -10 60 -5 44
-4 47 17 47 57 0 105 84 93 162 -16 98 -64 165 -182 254 -74 56 -84 69 -84
109 0 46 45 40 126 -16 25 -17 47 -29 48 -27 2 1 6 24 10 49 6 44 5 48 -25 73
-18 15 -54 38 -80 52 -42 21 -49 29 -49 54 0 33 -22 50 -65 50 -24 0 -26 -3
-20 -28z"/>
<path d="M6647 8582 c-9 -13 3 -132 19 -194 36 -139 67 -212 135 -314 109
-164 300 -275 449 -261 63 5 98 21 150 66 35 31 35 31 -17 -3 -29 -19 -77 -40
-106 -46 -47 -11 -62 -10 -132 9 -167 46 -287 148 -372 316 -28 55 -60 129
-72 165 -25 79 -44 204 -35 242 5 26 -8 39 -19 20z"/>
<path d="M1941 8683 c-12 -10 -25 -32 -30 -50 -13 -45 21 -97 66 -101 41 -4
91 22 103 53 28 75 -77 149 -139 98z"/>
<path d="M7906 8388 c-22 -31 -20 -70 5 -102 41 -52 129 -18 129 49 0 65 -99
104 -134 53z"/>
<path d="M6843 7378 c-6 -14 -40 -59 -75 -99 -132 -153 -196 -243 -187 -264 4
-11 10 -31 13 -45 3 -14 58 -83 121 -153 l115 -128 0 81 c0 45 7 189 16 320 8
132 14 256 12 277 -3 37 -3 37 -15 11z"/>
<path d="M1917 6705 c-21 -63 -42 -117 -48 -120 -12 -8 -12 -65 0 -65 5 0 16
-3 25 -6 13 -5 16 2 17 37 0 24 6 76 14 114 l13 70 -5 -117 c-6 -116 -6 -118
16 -118 21 0 21 3 21 160 0 88 -4 160 -8 160 -4 0 -25 -52 -45 -115z"/>
<path d="M7859 7096 c-4 -4 -159 -20 -299 -30 -125 -10 -215 -18 -217 -19 -2
-2 -246 -423 -360 -619 -40 -70 -73 -130 -73 -134 0 -4 104 -5 230 -2 180 5
232 3 238 -7 4 -7 79 -88 167 -181 132 -139 286 -302 375 -397 15 -16 18 -17
23 -3 4 9 3 15 -1 13 -4 -1 -40 34 -81 78 -41 44 -151 160 -245 258 -94 98
-175 186 -180 196 -6 14 5 44 47 118 30 54 126 229 212 388 87 160 164 299
171 310 8 11 14 23 14 27 0 8 -14 11 -21 4z"/>
<path d="M6834 6548 c-54 -84 -117 -187 -140 -228 -35 -65 -235 -393 -288
-472 l-17 -26 53 -6 c29 -4 138 -13 243 -22 104 -9 195 -20 201 -25 8 -7 22 2
43 28 17 21 31 40 31 44 0 6 -54 9 -377 25 -100 5 -133 10 -133 20 0 28 39 31
285 19 167 -8 254 -8 263 -1 7 5 20 22 28 38 l15 28 -251 0 c-137 0 -250 2
-250 5 0 3 18 37 40 76 21 38 66 125 98 193 33 68 103 192 156 275 54 84 100
159 103 167 15 38 -14 1 -103 -138z"/>
<path d="M8881 6916 c-28 -16 -50 -52 -51 -84 0 -29 51 -82 80 -82 58 0 108
59 95 113 -13 52 -78 80 -124 53z"/>
<path d="M905 6380 c-3 -10 -16 -21 -29 -24 -28 -7 -46 -44 -35 -72 10 -28 47
-54 76 -54 19 0 23 -6 23 -28 0 -48 -20 -56 -51 -22 -32 35 -45 37 -54 11 -8
-27 4 -51 26 -51 11 0 28 -14 39 -32 17 -28 20 -30 20 -11 0 14 12 28 36 42
32 19 35 25 32 59 -3 33 -8 39 -50 60 -33 15 -48 29 -48 42 0 28 20 35 36 12
9 -13 21 -18 34 -15 29 8 25 26 -15 66 -30 30 -35 32 -40 17z"/>
<path d="M1917 5963 c-3 -5 4 -69 14 -143 10 -74 23 -173 29 -220 6 -47 13
-99 16 -116 l6 -31 176 69 c270 106 357 144 357 156 0 11 -565 292 -585 292
-5 0 -11 -3 -13 -7z"/>
<path d="M1220 4805 c0 -13 35 -15 235 -15 l235 0 -6 -27 c-7 -32 -49 -88 -85
-115 -58 -43 -219 -30 -281 23 l-33 28 183 1 c109 0 181 4 177 9 -3 5 -87 10
-187 11 -117 0 -187 5 -195 12 -30 25 -22 -3 12 -41 104 -115 280 -123 373
-17 18 20 38 57 44 82 7 24 16 44 20 44 4 0 8 3 8 8 0 4 -113 8 -250 9 -214 2
-250 0 -250 -12z"/>
<path d="M6490 3158 c-82 -55 -81 -153 2 -223 l33 -28 3 72 c2 39 2 101 0 137
l-3 65 -35 -23z"/>
<path d="M6630 2353 c0 -115 4 -203 8 -197 11 17 52 36 52 24 0 -5 -8 -10 -17
-10 -12 0 -14 -3 -6 -11 8 -8 23 -3 56 20 144 99 122 272 -45 357 l-48 24 0
-207z"/>
<path d="M7768 4223 c-29 -34 -55 -88 -50 -102 2 -8 0 -11 -5 -8 -6 4 -16 -18
-23 -48 -18 -76 -7 -152 35 -234 79 -159 245 -226 422 -173 38 12 78 31 89 43
l19 21 -40 -20 c-22 -11 -55 -23 -72 -27 l-33 -7 0 44 c0 39 -24 178 -35 203
-6 13 2 -63 15 -140 10 -59 12 -130 4 -110 -2 6 -22 9 -44 7 -35 -4 -40 -2
-40 17 0 18 6 21 43 22 l42 2 -38 6 c-21 3 -38 9 -37 14 0 4 0 22 0 41 0 30 4
35 28 39 l27 4 -27 2 c-26 1 -28 4 -28 45 0 26 5 46 13 49 7 3 6 6 -5 6 -25 1
-27 -7 -40 -131 -6 -62 -12 -114 -13 -115 -1 -2 -26 4 -55 13 -72 21 -180 104
-180 138 0 2 28 21 63 42 91 54 127 83 127 101 0 14 -3 14 -20 -2 -11 -10 -20
-14 -20 -10 0 4 -8 1 -17 -7 -16 -13 -136 -68 -150 -68 -3 0 -3 11 -1 25 3 13
1 22 -3 19 -5 -3 -9 11 -9 30 0 26 4 35 18 35 9 0 61 3 115 7 72 5 97 10 97
20 0 11 -26 14 -125 14 -69 0 -125 2 -125 5 0 2 13 28 29 57 27 48 61 76 61
49 0 -6 3 -10 8 -9 18 4 61 -15 55 -25 -3 -6 -1 -7 5 -3 6 4 30 -3 53 -14 22
-12 42 -20 44 -18 14 14 -127 102 -176 110 l-21 3 22 28 c23 30 22 38 -2 10z"/>
<path d="M1930 1900 c-305 -3 -541 -7 -525 -9 60 -8 1184 -7 1179 1 -3 5 -10
6 -15 3 -5 -4 -9 -1 -9 4 0 6 -16 10 -37 9 -21 -2 -288 -5 -593 -8z"/>
<path d="M6335 909 c-121 -3 -301 -16 -400 -28 -198 -23 -497 -80 -489 -92 2
-4 -6 -6 -18 -4 -13 2 -40 -4 -61 -13 -37 -16 5 -17 885 -18 820 0 856 0 323
5 -330 4 -564 8 -520 10 44 2 310 2 590 1 281 -1 508 1 505 4 -5 4 -429 11
-1037 15 -51 1 -93 5 -93 9 0 4 114 8 253 7 138 0 479 2 757 5 l505 4 -815 8
c-448 4 -826 8 -840 10 -14 1 -65 0 -115 -4 -65 -4 -78 -4 -45 3 25 5 146 8
270 7 323 -3 1494 4 1499 8 2 2 -314 4 -704 4 -390 0 -705 3 -701 7 9 9 394
17 796 16 298 0 307 0 170 10 -134 9 -879 -4 -1025 -18 -34 -4 -44 -2 -29 4
52 23 295 31 920 31 361 0 655 2 653 4 -8 7 -1013 11 -1234 5z"/>
</g>
</svg>
